<svg width="824" height="592" viewBox="0 0 824 592" fill="none" xmlns="http://www.w3.org/2000/svg">
<g clip-path="url(#clip0_601_23)">
<path d="M796.418 322.988C790.175 316.438 783.64 309.039 776.457 302.31C732.383 403.154 640.554 531.607 505.927 576.251C359.372 624.84 210.635 556.131 114.005 437.067C102.962 422.369 111.958 418.121 125.362 429.902C174.415 473.003 317.547 577.883 475.593 534.502C586.32 504.11 692.36 391.339 733.603 290.104C734.901 286.918 736.12 284.113 737.262 281.665C727.941 280.737 717.558 282.391 705.843 287.868C695.079 292.898 689.115 287.969 698.424 276.903C706.816 266.899 733.524 246.701 766.275 260.517C815.608 281.341 823.731 351.659 796.418 322.988Z" fill="#E95214"/>
<path d="M317.29 89.8121L305.496 194.815C287.236 201.309 264.264 206.663 240.991 206.596C161.515 206.383 121.145 172.985 128.966 103.27C135.892 41.5137 182.595 -0.201195 255.123 -0.0223535C276.875 0.0447122 298.436 4.64989 314.459 12.6642C314.459 12.6642 309.569 56.1899 307.779 72.1291C295.426 66.4062 282.111 61.2533 261.255 61.1974C228.314 61.108 206.92 79.2716 204.201 103.46C200.587 135.607 214.361 147.6 248.119 148.539L254.72 89.6333L317.29 89.8121Z" fill="white"/>
<path d="M476.432 131.773C471.229 178.16 442.283 207.11 388.486 206.976C334.7 206.842 311.975 177.746 317.178 131.359C322.358 85.2628 351.439 57.7324 405.225 57.8665C459.022 58.023 481.602 85.6876 476.432 131.773ZM416.503 132.488C418.226 117.119 414.612 106.299 399.798 106.254C384.693 106.221 378.639 117.018 376.916 132.388C375.193 147.757 378.818 158.577 393.924 158.61C408.727 158.644 414.78 147.846 416.503 132.488Z" fill="white"/>
<path d="M638.72 132.198C633.506 178.585 604.559 207.546 550.773 207.401C496.976 207.255 474.262 178.171 479.465 131.784C484.634 85.6764 513.726 58.1571 567.523 58.2913C621.298 58.4366 643.889 86.1123 638.72 132.198ZM578.78 132.913C580.503 117.533 576.889 106.713 562.085 106.679C546.969 106.646 540.927 117.443 539.192 132.812C537.469 148.17 541.083 159.002 556.189 159.035C571.003 159.069 577.056 148.271 578.78 132.913Z" fill="white"/>
<path d="M823.172 5.16406L800.805 204.349L739.153 204.193L740.205 194.803C728.434 202.74 714.257 207.825 697.943 207.781C653.22 207.669 636.627 177.735 641.64 133.07C646.664 88.3926 669.959 58.5707 714.682 58.6825C730.392 58.7272 743.158 63.6006 752.893 71.0226L760.311 5.00757L823.172 5.16406ZM746.303 132.488C748.026 117.119 744.468 105.729 729.351 105.684C714.537 105.651 708.125 117.018 706.413 132.376C704.679 147.746 708.539 159.147 723.354 159.18C738.47 159.214 744.579 147.846 746.303 132.488Z" fill="white"/>
<path d="M187.015 342.259C182.729 380.385 151.142 397.945 103.689 397.834L0.335449 397.565L22.7025 198.38L115.483 198.626C161.414 198.738 192.922 211.626 188.603 250.043C186.086 272.521 174.539 286.438 154.354 296.632C179.574 303.528 189.443 320.63 187.015 342.259ZM121.905 335.261C122.957 325.872 117.139 318.461 104.752 318.428L73.0199 318.338L69.2716 351.625L101.004 351.715C112.484 351.748 120.876 344.371 121.905 335.261ZM109.955 247.841L80.9418 247.763L77.7194 276.512L106.733 276.59C112.775 276.601 122.297 272.644 123.438 262.394C124.613 251.865 118.112 247.864 109.955 247.841Z" fill="white"/>
<path d="M349.581 326.744C344.367 373.12 315.432 402.081 261.635 401.947C207.849 401.802 185.124 372.706 190.327 326.319C195.507 280.223 224.599 252.692 278.385 252.826C332.171 252.983 354.762 280.636 349.581 326.744ZM289.652 327.437C291.387 312.068 287.761 301.248 272.947 301.214C257.842 301.17 251.788 311.967 250.076 327.336C248.342 342.694 251.967 353.526 267.073 353.57C281.876 353.604 287.929 342.806 289.652 327.437Z" fill="white"/>
<path d="M599.199 303.193C592.967 358.678 588.435 399.097 588.435 399.097L525.575 398.929C525.575 398.929 534.079 323.234 534.963 315.265C536.014 305.875 532.3 301.315 523.841 301.293C517.496 301.27 513.155 304.97 510.615 311.509C504.898 362.434 500.802 398.862 500.802 398.862L437.942 398.706C437.942 398.706 446.446 323.011 447.341 315.041C448.392 305.652 444.678 301.08 436.51 301.069C430.177 301.047 425.824 304.735 423.262 311.285C421.706 325.224 413.46 398.65 413.46 398.65L350.6 398.482L366.511 256.772L428.163 256.929L427.167 265.748C439.81 258.091 452.443 253.285 468.164 253.318C489.311 253.374 502.324 261.377 508.109 274.5C519.455 262.272 534.951 253.497 555.808 253.553C589.946 253.642 602.455 274.176 599.199 303.193Z" fill="white"/>
</g>
<defs>
<clipPath id="clip0_601_23">
<rect width="824" height="592" fill="white"/>
</clipPath>
</defs>
</svg>
