<svg width="845" height="608" viewBox="0 0 845 608" fill="none" xmlns="http://www.w3.org/2000/svg">
<g clip-path="url(#clip0_601_10)">
<path d="M816.716 331.718C810.314 324.991 803.613 317.391 796.246 310.48C751.049 414.05 656.88 545.975 518.821 591.825C368.531 641.727 216.003 571.162 116.912 448.88C105.587 433.784 114.812 429.422 128.558 441.521C178.861 485.787 325.64 593.501 487.714 548.948C601.264 517.735 710.005 401.916 752.3 297.944C753.631 294.673 754.881 291.791 756.052 289.277C746.494 288.324 735.845 290.023 723.832 295.648C712.794 300.814 706.678 295.752 716.224 284.387C724.83 274.113 752.219 253.369 785.804 267.558C836.395 288.944 844.725 361.163 816.716 331.718Z" fill="#E95214"/>
<path d="M325.376 92.2395L313.282 200.08C294.556 206.75 270.999 212.248 247.133 212.18C165.631 211.961 124.232 177.66 132.252 106.061C139.355 42.6357 187.248 -0.206631 261.625 -0.022956C283.931 0.0459222 306.042 4.77556 322.473 13.0065C322.473 13.0065 317.459 57.7085 315.623 74.0786C302.955 68.201 289.301 62.9088 267.913 62.8514C234.132 62.7596 212.194 81.4141 209.405 106.256C205.699 139.272 219.824 151.59 254.442 152.554L261.212 92.0558L325.376 92.2395Z" fill="#1A408F"/>
<path d="M488.574 135.334C483.239 182.975 453.555 212.708 398.387 212.57C343.23 212.432 319.925 182.55 325.261 134.91C330.574 87.5673 360.395 59.2927 415.552 59.4305C470.72 59.5912 493.875 88.0035 488.574 135.334ZM427.118 136.069C428.885 120.284 425.179 109.172 409.987 109.126C394.497 109.092 388.289 120.181 386.522 135.966C384.755 151.75 388.473 162.863 403.963 162.897C419.143 162.932 425.351 151.842 427.118 136.069Z" fill="#1A408F"/>
<path d="M654.997 135.771C649.65 183.411 619.966 213.155 564.81 213.006C509.641 212.857 486.349 182.987 491.684 135.346C496.985 87.992 526.818 59.7289 581.987 59.8667C637.132 60.0159 660.299 88.4397 654.997 135.771ZM593.53 136.505C595.297 120.709 591.591 109.597 576.41 109.562C560.908 109.528 554.712 120.617 552.934 136.402C551.167 152.175 554.873 163.299 570.363 163.333C585.555 163.368 591.763 152.278 593.53 136.505Z" fill="#1A408F"/>
<path d="M844.151 5.30363L821.214 209.872L757.99 209.711L759.069 200.068C746.998 208.219 732.46 213.442 715.731 213.396C669.868 213.282 652.852 182.539 657.992 136.666C663.144 90.7816 687.034 60.1537 732.896 60.2685C749.006 60.3144 762.098 65.3196 772.081 72.9421L779.688 5.14291L844.151 5.30363ZM765.323 136.069C767.09 120.284 763.441 108.587 747.939 108.541C732.747 108.506 726.172 120.181 724.417 135.954C722.638 151.739 726.597 163.448 741.789 163.483C757.291 163.517 763.555 151.842 765.323 136.069Z" fill="#1A408F"/>
<path d="M191.781 351.509C187.386 390.666 154.995 408.701 106.332 408.586L0.344238 408.31L23.2813 203.742L118.426 203.994C165.528 204.109 197.839 217.345 193.41 256.801C190.829 279.887 178.987 294.179 158.288 304.649C184.151 311.732 194.271 329.296 191.781 351.509ZM125.012 344.322C126.091 334.68 120.124 327.068 107.422 327.034L74.8811 326.942L71.0372 361.129L103.578 361.221C115.351 361.255 123.957 353.678 125.012 344.322ZM112.758 254.54L83.0049 254.459L79.7003 283.985L109.453 284.065C115.649 284.077 125.414 280.013 126.584 269.486C127.789 258.672 121.122 254.563 112.758 254.54Z" fill="#1A408F"/>
<path d="M358.491 335.575C353.144 383.204 323.471 412.948 268.303 412.81C213.146 412.661 189.842 382.78 195.177 335.139C200.49 287.796 230.323 259.522 285.48 259.66C340.637 259.82 363.803 288.221 358.491 335.575ZM297.035 336.287C298.813 320.502 295.095 309.39 279.904 309.355C264.413 309.309 258.206 320.399 256.45 336.183C254.672 351.957 258.389 363.08 273.88 363.126C289.06 363.161 295.268 352.071 297.035 336.287Z" fill="#1A408F"/>
<path d="M614.471 311.387C608.079 368.372 603.432 409.883 603.432 409.883L538.97 409.711C538.97 409.711 547.69 331.97 548.597 323.785C549.675 314.142 545.866 309.459 537.191 309.436C530.685 309.413 526.233 313.212 523.629 319.928C517.765 372.23 513.566 409.642 513.566 409.642L449.103 409.481C449.103 409.481 457.824 331.741 458.742 323.556C459.82 313.913 456.011 309.218 447.635 309.206C441.14 309.183 436.677 312.971 434.049 319.699C432.454 334.014 423.998 409.424 423.998 409.424L359.535 409.252L375.852 263.712L439.075 263.873L438.054 272.93C451.02 265.067 463.974 260.13 480.095 260.165C501.782 260.222 515.126 268.442 521.059 281.919C532.693 269.36 548.585 260.348 569.973 260.406C604.981 260.498 617.81 281.586 614.471 311.387Z" fill="#1A408F"/>
</g>
<defs>
<clipPath id="clip0_601_10">
<rect width="845" height="608" fill="white"/>
</clipPath>
</defs>
</svg>
